<svg width="520" height="420" viewBox="0 0 520 420" fill="none" xmlns="http://www.w3.org/2000/svg">
  <defs>
    <radialGradient id="tFruit" cx="0" cy="0" r="1" gradientUnits="userSpaceOnUse" gradientTransform="translate(218 178) rotate(48) scale(66 66)">
      <stop stop-color="#FFC5B0"/>
      <stop offset=".64" stop-color="#F06F5D"/>
      <stop offset="1" stop-color="#DE4C41"/>
    </radialGradient>
    <linearGradient id="tLeaf" x1="182" y1="94" x2="344" y2="188" gradientUnits="userSpaceOnUse">
      <stop stop-color="#CAE0A0"/>
      <stop offset="1" stop-color="#769B61"/>
    </linearGradient>
    <filter id="tShadow" x="118" y="86" width="280" height="250" filterUnits="userSpaceOnUse" color-interpolation-filters="sRGB">
      <feGaussianBlur stdDeviation="10"/>
    </filter>
  </defs>
  <ellipse cx="258" cy="294" rx="104" ry="22" fill="#D48E69" fill-opacity=".18" filter="url(#tShadow)"/>
  <path d="M202 108C226 90 262 90 292 110C270 130 242 140 214 136C204 126 198 118 202 108Z" fill="url(#tLeaf)" stroke="#976142" stroke-opacity=".54" stroke-width="3"/>
  <path d="M248 116C280 94 320 100 344 126C314 144 282 150 252 146C242 136 240 126 248 116Z" fill="url(#tLeaf)" stroke="#976142" stroke-opacity=".54" stroke-width="3"/>
  <path d="M178 146C196 126 226 122 248 138C234 158 212 172 188 174C176 166 172 156 178 146Z" fill="url(#tLeaf)" stroke="#976142" stroke-opacity=".5" stroke-width="3"/>
  <circle cx="214" cy="184" r="40" fill="url(#tFruit)" stroke="#A35E3B" stroke-opacity=".56" stroke-width="3"/>
  <circle cx="270" cy="170" r="38" fill="url(#tFruit)" stroke="#A35E3B" stroke-opacity=".56" stroke-width="3"/>
  <circle cx="318" cy="206" r="34" fill="url(#tFruit)" stroke="#A35E3B" stroke-opacity=".56" stroke-width="2.8"/>
  <circle cx="250" cy="230" r="36" fill="url(#tFruit)" stroke="#A35E3B" stroke-opacity=".56" stroke-width="2.8"/>
  <circle cx="304" cy="252" r="30" fill="url(#tFruit)" stroke="#A35E3B" stroke-opacity=".56" stroke-width="2.6"/>
  <circle cx="196" cy="244" r="30" fill="url(#tFruit)" stroke="#A35E3B" stroke-opacity=".56" stroke-width="2.6"/>
  <path d="M214 146L214 154M208 150L220 150M206 158L222 142M206 142L222 158" stroke="#6E9357" stroke-width="4.6" stroke-linecap="round"/>
  <path d="M270 134L270 142M264 138L276 138M262 146L278 130M262 130L278 146" stroke="#6E9357" stroke-width="4.6" stroke-linecap="round"/>
  <path d="M318 176L318 182M312 180L324 180M310 188L326 172M310 172L326 188" stroke="#6E9357" stroke-width="4.2" stroke-linecap="round"/>
  <path d="M250 196L250 202M244 200L256 200M242 208L258 192M242 192L258 208" stroke="#6E9357" stroke-width="4.2" stroke-linecap="round"/>
  <path d="M304 226L304 232M298 230L310 230M296 238L312 222M296 222L312 238" stroke="#6E9357" stroke-width="3.8" stroke-linecap="round"/>
  <path d="M196 220L196 226M190 224L202 224M188 232L204 216M188 216L204 232" stroke="#6E9357" stroke-width="3.8" stroke-linecap="round"/>
  <path d="M206 164C214 158 222 158 230 162" stroke="#FFF5E8" stroke-width="7" stroke-linecap="round" stroke-opacity=".5"/>
  <circle cx="356" cy="184" r="3.6" fill="#D28F4C" fill-opacity=".56"/>
</svg>
